#!OML:ASF H:\Terrain\Walking\May29\JustinRory\Justin.ASF
:FULLY-SPECIFIED
:DEGREES
500
root 7.84673 13.6373 25.8273 -238.177 -58.5204 241.201
lowerback 21.4197 1.82898 1.46445
upperback 5.87051 2.43364 4.91775
thorax -5.71368 0.903435 3.87641
lowerneck -4.95787 -13.8023 -18.8445
upperneck 18.4869 -20.7155 16.2574
head 10.4523 -9.98822 5.97591
rclavicle 5.88403e-014 9.54166e-015
rhumerus -19.798 -62.5865 -16.549
rradius 26.9878
rwrist -58.5349
rhand -1.91476 -9.92703
rfingers 7.12502
rthumb 23.7551 -38.4787
lclavicle 5.88403e-014 9.54166e-015
lhumerus -36.2898 21.0199 39.7675
lradius 51.0421
lwrist -4.89688
lhand -6.6558 30.8509
lfingers 7.12502
lthumb 19.2018 59.923
rfemur -7.52613 4.63926 7.27495
rtibia 24.9269
rfoot -1.66237 -15.4383
rtoes -36.9361
lfemur -66.9958 13.5409 -10.406
ltibia 89.1522
lfoot -16.4528 -16.5978
ltoes 35.8275
501
root 7.82938 13.7057 25.9331 -238.229 -58.2745 242.117
lowerback 21.069 1.76346 1.87876
upperback 5.63779 2.4673 5.18439
thorax -5.77964 0.925124 3.92345
lowerneck -5.11755 -13.7851 -18.8532
upperneck 18.2407 -20.4749 15.8374
head 10.2937 -9.88747 5.86132
rclavicle 6.36111e-015 2.38542e-014
rhumerus -20.2031 -62.3318 -16.0336
rradius 27.0495
rwrist -58.7234
rhand -1.87995 -9.66422
rfingers 7.12502
rthumb 23.7885 -38.2116
lclavicle 6.36111e-015 2.38542e-014
lhumerus -36.307 20.4675 40.7982
lradius 51.4586
lwrist -4.86967
lhand -7.19895 31.1358
lfingers 7.12502
lthumb 18.6795 60.2589
rfemur -7.58204 5.0022 7.81014
rtibia 23.3062
rfoot 0.475185 -17.5498
rtoes -36.4744
lfemur -67.3908 12.7401 -10.2647
ltibia 88.2388
lfoot -15.7423 -15.958
ltoes 35.7767
502
root 7.81809 13.7907 26.0554 -238.037 -58.3829 242.574
lowerback 20.8943 1.78197 2.01995
upperback 5.39414 2.55401 5.22515
thorax -5.9538 0.978104 3.86557
lowerneck -4.9184 -13.7515 -18.8877
upperneck 17.9591 -20.361 15.7169
head 10.1229 -9.85355 5.85781
rclavicle -2.78299e-014 -2.22639e-014
rhumerus -21.4548 -61.5531 -14.9975
rradius 27.4572
rwrist -59.5455
rhand -1.7331 -10.0903
rfingers 7.12502
rthumb 23.9294 -38.6193
lclavicle -2.78299e-014 -2.22639e-014
lhumerus -36.1673 19.02 41.9028
lradius 52.0569
lwrist -4.29073
lhand -7.31967 31.5605
lfingers 7.12502
lthumb 18.5634 60.6947
rfemur -7.71061 5.15524 7.73287
rtibia 22.1174
rfoot 1.43937 -19.7294
rtoes -31.9053
lfemur -67.4038 11.6538 -10.4233
ltibia 87.1684
lfoot -15.1857 -15.2227
ltoes 34.8961
503
root 7.8189 13.8814 26.1709 -237.482 -58.1076 242.631
lowerback 20.7825 1.83095 2.15817
upperback 5.04456 2.69471 5.26352
thorax -6.27866 1.05912 3.79276
lowerneck -4.23607 -13.4434 -19.4073
upperneck 17.827 -20.1202 16.2858
head 10.0305 -9.78486 6.23079
rclavicle -2.8625e-014 4.6118e-014
rhumerus -22.1942 -60.0316 -14.8336
rradius 27.9843
rwrist -60.6742
rhand -1.73877 -10.4237
rfingers 7.12502
rthumb 23.9239 -38.9534
lclavicle -2.8625e-014 4.6118e-014
lhumerus -36.4936 17.2881 42.6345
lradius 52.8063
lwrist -3.42177
lhand -8.44113 32.8534
lfingers 7.12502
lthumb 17.4843 62.0871
rfemur -8.36307 5.73426 7.93113
rtibia 21.4682
rfoot 2.11009 -21.9656
rtoes -25.5153
lfemur -67.3085 10.9885 -10.1969
ltibia 85.9812
lfoot -14.6651 -14.7104
ltoes 34.5996
504
root 7.82429 13.973 26.2874 -236.358 -57.9678 241.955
lowerback 20.5601 1.98157 1.96511
upperback 5.22149 2.81483 5.16606
thorax -5.98105 1.11604 3.76753
lowerneck -5.1032 -13.6626 -19.0302
upperneck 17.6406 -20.2224 16.1467
head 10.0876 -9.75983 6.04306
rclavicle -3.65764e-014 2.8625e-014
rhumerus -21.8703 -60.3605 -15.6464
rradius 28.0165
rwrist -60.6376
rhand -1.79618 -9.72793
rfingers 7.12502
rthumb 23.8689 -38.2648
lclavicle -3.65764e-014 2.8625e-014
lhumerus -36.1792 17.4766 43.0974
lradius 53.1332
lwrist -3.71873
lhand -5.5935 30.7669
lfingers 7.12502
lthumb 20.2231 59.7342
rfemur -9.40145 6.00862 7.79786
rtibia 21.3386
rfoot 3.52781 -23.9006
rtoes -21.5221
lfemur -67.0278 10.4726 -10.3143
ltibia 84.6862
lfoot -14.4241 -14.031
ltoes 34.0847
505
root 7.83131 14.0799 26.4213 -235.331 -58.302 241.109
lowerback 20.72 2.12922 1.75965
upperback 5.13447 2.96828 4.74113
thorax -6.15573 1.20147 3.37944
lowerneck -4.90249 -13.5714 -18.8878
upperneck 17.2721 -20.1736 16.5329
head 9.94207 -9.72181 6.18076
rclavicle -2.54444e-014 3.49861e-014
rhumerus -23.0869 -61.0743 -15.1142
rradius 27.9074
rwrist -59.6733
rhand -1.93331 -8.82169
rfingers 7.12502
rthumb 23.7374 -37.3757
lclavicle -2.54444e-014 3.49861e-014
lhumerus -35.8309 17.5657 43.2581
lradius 53.2553
lwrist -4.71838
lhand -4.47142 29.2392
lfingers 7.12502
lthumb 21.3012 58.0886
rfemur -10.373 5.41456 7.16935
rtibia 21.6578
rfoot 4.82107 -25.3103
rtoes -16.0656
lfemur -66.3308 9.50887 -10.9439
ltibia 83.2232
lfoot -14.0224 -13.0163
ltoes 33.8577
506
root 7.84306 14.1819 26.5447 -235.07 -58.0892 241.222
lowerback 20.7707 2.19532 2.07499
upperback 5.22995 3.10079 4.69574
thorax -6.0646 1.25593 3.11582
lowerneck -5.73745 -13.3757 -19.4975
upperneck 17.5625 -19.9394 17.3888
head 10.3313 -9.54611 6.5747
rclavicle 3.26007e-014 1.59028e-014
rhumerus -23.6877 -61.5489 -15.0541
rradius 28.1184
rwrist -59.318
rhand -2.14044 -8.56414
rfingers 7.12502
rthumb 23.5387 -37.1438
lclavicle 3.26007e-014 1.59028e-014
lhumerus -35.3973 17.8102 43.6877
lradius 53.5731
lwrist -5.59582
lhand -3.56671 28.7399
lfingers 7.12502
lthumb 22.17 57.4887
rfemur -11.5608 4.37917 7.50542
rtibia 22.4602
rfoot 6.61161 -25.5842
rtoes -10.174
lfemur -65.8453 8.71174 -10.7977
ltibia 81.7915
lfoot -13.3384 -12.1515
ltoes 34.1618
507
root 7.85716 14.2619 26.6481 -235.313 -57.5022 241.879
lowerback 20.8227 2.13512 2.55744
upperback 5.25253 3.12194 4.92907
thorax -6.05379 1.25249 3.08915
lowerneck -5.9469 -13.2883 -18.8376
upperneck 17.5015 -19.6025 16.5081
head 10.0952 -9.38829 6.2116
rclavicle -1.59028e-015 -1.90833e-014
rhumerus -23.4265 -60.8673 -15.8952
rradius 28.5575
rwrist -60.0453
rhand -2.00931 -8.57167
rfingers 7.12502
rthumb 23.6645 -37.1351
lclavicle -1.59028e-015 -1.90833e-014
lhumerus -35.6257 17.9164 44.0462
lradius 54.1921
lwrist -6.11339
lhand -2.62735 28.5493
lfingers 7.12502
lthumb 23.0716 57.1882
rfemur -12.8717 2.78604 8.60653
rtibia 23.9182
rfoot 9.69813 -23.6577
rtoes -12.2164
lfemur -65.5408 8.22993 -10.1824
ltibia 80.4891
lfoot -12.7949 -11.5328
ltoes 34.407
508
root 7.87749 14.3489 26.7488 -234.996 -57.6701 241.593
lowerback 21.0724 2.18448 2.09703
upperback 5.30722 3.09356 4.91883
thorax -6.14942 1.24094 3.34448
lowerneck -5.94539 -13.0121 -19.2494
upperneck 17.516 -19.2865 17.0057
head 10.1414 -9.23822 6.51737
rclavicle 4.69132e-014 6.99722e-014
rhumerus -23.1349 -59.4748 -16.7431
rradius 28.8424
rwrist -61.3032
rhand -2.06206 -8.07498
rfingers 7.12502
rthumb 23.6139 -36.6449
lclavicle 4.69132e-014 6.99722e-014
lhumerus -35.8574 17.885 44.5652
lradius 54.9373
lwrist -5.73408
lhand -3.48092 28.9594
lfingers 7.12502
lthumb 22.2523 57.6983
rfemur -14.1043 0.715099 8.8359
rtibia 26.1007
rfoot 11.4651 -20.0326
rtoes -17.3823
lfemur -64.8356 7.58874 -10.5085
ltibia 79.098
lfoot -12.2863 -10.8819
ltoes 34.7116
509
root 7.90858 14.4438 26.8376 -234.417 -57.7571 241.046
lowerback 21.2235 2.38607 1.33525
upperback 5.40078 3.19502 4.97326
thorax -6.17884 1.29569 3.81115
lowerneck -5.94685 -12.6822 -19.6058
upperneck 17.5595 -18.8539 17.3222
head 10.1429 -9.04125 6.77546
rclavicle -2.70347e-014 3.18055e-014
rhumerus -22.9273 -57.0397 -17.6062
rradius 29.3013
rwrist -63.2133
rhand -3.53533 -7.11553
rfingers 7.12502
rthumb 22.2001 -35.8607
lclavicle -2.70347e-014 3.18055e-014
lhumerus -36.002 17.9242 45.1622
lradius 55.7797
lwrist -5.17744
lhand -4.69843 29.5364
lfingers 7.12502
lthumb 21.0831 58.4102
rfemur -15.6077 -1.20501 9.24716
rtibia 29.0259
rfoot 11.4796 -15.695
rtoes -21.3853
lfemur -64.1366 7.16406 -10.7567
ltibia 77.6293
lfoot -11.6293 -10.3757
ltoes 34.7402
510
root 7.93886 14.5367 26.929 -234.232 -57.6483 241.129
lowerback 21.0552 2.52537 0.972158
upperback 5.62039 3.27587 5.16029
thorax -5.88976 1.32842 4.20655
lowerneck -6.25273 -12.7535 -18.5969
upperneck 17.4454 -18.708 16.2032
head 9.89167 -8.95814 6.22344
rclavicle -7.79236e-014 -8.42847e-014
rhumerus -22.917 -55.7451 -18.2605
rradius 29.9023
rwrist -64.0841
rhand -4.71197 -6.47118
rfingers 7.12502
rthumb 21.0701 -35.3465
lclavicle -7.79236e-014 -8.42847e-014
lhumerus -35.8922 18.4817 45.7581
lradius 56.5812
lwrist -5.19837
lhand -5.09973 29.7017
lfingers 7.12502
lthumb 20.6976 58.618
rfemur -17.2486 -2.9923 10.0823
rtibia 32.3694
rfoot 9.92098 -11.8481
rtoes -21.7773
lfemur -63.6952 6.76088 -10.7204
ltibia 76.1288
lfoot -10.8208 -10.0106
ltoes 33.9181
511
root 7.96779 14.6381 27.0448 -233.51 -58.8801 240.736
lowerback 20.6986 2.55683 -0.23521
upperback 5.6909 3.06346 4.92707
thorax -5.66471 1.246 4.70551
lowerneck -5.60638 -12.7437 -18.4772
upperneck 16.9704 -18.79 16.409
head 9.63217 -9.0157 6.29841
rclavicle 2.38542e-014 -9.54166e-015
rhumerus -23.544 -55.8876 -18.2625
rradius 30.2755
rwrist -63.5248
rhand -5.47759 -5.91798
rfingers 7.12502
rthumb 20.3345 -34.8734
lclavicle 2.38542e-014 -9.54166e-015
lhumerus -35.6807 19.1627 46.1903
lradius 57.284
lwrist -5.32321
lhand -4.83413 29.7184
lfingers 7.12502
lthumb 20.9528 58.6067
rfemur -18.8833 -5.53934 9.43043
rtibia 36.0324
rfoot 7.42898 -8.5873
rtoes -17.9315
lfemur -63.3157 5.83159 -12.2968
ltibia 74.4212
lfoot -9.81605 -9.69819
ltoes 33.3363
512
root 8.00867 14.756 27.1211 -234.447 -58.5748 241.543
lowerback 21.3211 2.51695 0.679387
upperback 5.85255 3.14707 4.35718
thorax -5.73672 1.26781 3.52821
lowerneck -5.80015 -12.7034 -18.0965
upperneck 17.0309 -19.0685 17.5525
head 9.83752 -9.05567 6.58921
rclavicle 7.95139e-015 -1.27222e-014
rhumerus -25.932 -56.2896 -18.1209
rradius 30.8781
rwrist -63.0357
rhand -5.92287 -5.38457
rfingers 7.12502
rthumb 19.9065 -34.385
lclavicle 7.95139e-015 -1.27222e-014
lhumerus -34.5605 19.1305 45.7132
lradius 57.769
lwrist -5.23579
lhand -4.82887 29.8148
lfingers 7.12502
lthumb 20.9578 58.7025
rfemur -19.9646 -6.95633 10.9198
rtibia 40.0176
rfoot 4.8682 -5.6323
rtoes -18.2362
lfemur -62.3655 6.01004 -11.9585
ltibia 72.827
lfoot -8.78688 -10.3201
ltoes 34.0025
513
root 8.04693 14.8692 27.2048 -234.712 -59.3784 241.425
lowerback 22.011 2.51117 0.448373
upperback 6.12987 3.02265 3.62354
thorax -5.75562 1.19831 2.88563
lowerneck -6.12642 -12.573 -17.9325
upperneck 17.0561 -19.1552 18.6482
head 10.0411 -9.013 6.92895
rclavicle -2.70347e-014 -6.99722e-014
rhumerus -27.8295 -55.5504 -18.5084
rradius 31.9366
rwrist -64.0495
rhand -6.67316 -4.77296
rfingers 7.12502
rthumb 19.1851 -33.8467
lclavicle -2.70347e-014 -6.99722e-014
lhumerus -33.5191 19.0275 45.6413
lradius 58.4261
lwrist -4.57707
lhand -6.44667 30.403
lfingers 7.12502
lthumb 19.4029 59.455
rfemur -20.8739 -9.02731 11.1836
rtibia 44.1088
rfoot 2.87348 -2.2392
rtoes -23.5198
lfemur -61.2031 5.85769 -13.0248
ltibia 71.1082
lfoot -7.8817 -10.7894
ltoes 35.0933
